<?xml version="1.0" standalone="no"?>
<!DOCTYPE svg PUBLIC "-//W3C//DTD SVG 20010904//EN"
 "http://www.w3.org/TR/2001/REC-SVG-20010904/DTD/svg10.dtd">
<svg version="1.0" xmlns="http://www.w3.org/2000/svg"
 width="512.000000pt" height="512.000000pt" viewBox="0 0 512.000000 512.000000"
 preserveAspectRatio="xMidYMid meet">
<metadata>
Created by potrace 1.11, written by Peter Selinger 2001-2013
</metadata>
<g transform="translate(0.000000,512.000000) scale(0.100000,-0.100000)"
fill="#000000" stroke="none">
<path d="M2378 5115 c-2 -1 -39 -5 -82 -9 -44 -4 -82 -9 -85 -11 -4 -2 -34 -7
-66 -10 -117 -14 -472 -111 -499 -136 -6 -5 -16 -9 -23 -9 -8 0 -49 -16 -91
-35 -352 -161 -618 -354 -877 -637 -33 -36 -71 -80 -85 -98 -14 -18 -29 -38
-35 -44 -29 -33 -158 -223 -194 -286 -81 -142 -231 -486 -231 -530 0 -6 -9
-39 -20 -73 -92 -295 -115 -754 -54 -1107 126 -740 566 -1382 1209 -1767 290
-174 603 -285 955 -340 162 -25 558 -25 720 0 831 128 1515 611 1907 1347 28
52 63 124 77 160 15 36 31 74 36 85 47 99 128 398 150 550 6 44 14 91 16 105
10 48 13 466 3 550 -64 594 -323 1132 -746 1555 -150 150 -309 274 -498 387
-66 39 -298 158 -310 158 -4 0 -21 6 -38 14 -137 62 -421 138 -607 162 -25 3
-56 8 -70 10 -27 6 -456 14 -462 9z"/>
</g>
</svg>
