<?xml version="1.0" standalone="no"?>
<!DOCTYPE svg PUBLIC "-//W3C//DTD SVG 20010904//EN"
 "http://www.w3.org/TR/2001/REC-SVG-20010904/DTD/svg10.dtd">
<svg version="1.0" xmlns="http://www.w3.org/2000/svg"
 width="320.000000pt" height="320.000000pt" viewBox="0 0 320.000000 320.000000"
 preserveAspectRatio="xMidYMid meet">
<metadata>
Created by potrace 1.11, written by Peter Selinger 2001-2013
</metadata>
<g transform="translate(0.000000,320.000000) scale(0.100000,-0.100000)"
fill="#000000" stroke="none">
<path d="M0 2551 l0 -349 771 -924 c424 -507 783 -935 798 -950 l26 -27 803
940 802 939 0 360 0 360 -1600 0 -1600 0 0 -349z m3053 266 c-10 -13 -145
-170 -301 -349 -283 -326 -284 -326 -335 -339 -29 -6 -117 -38 -197 -70 -167
-67 -233 -84 -306 -76 -78 8 -110 29 -143 95 -16 32 -35 63 -43 69 -7 6 -54
25 -104 42 -127 44 -160 38 -234 -39 -86 -91 -116 -90 -171 7 -40 70 -157 190
-222 228 -38 22 -61 28 -110 28 -81 0 -129 -24 -198 -102 l-54 -60 -253 294
-252 295 1471 0 1470 0 -18 -23z m-2754 -362 c16 -8 54 -42 84 -77 61 -68 61
-66 3 -133 l-35 -40 6 66 c5 63 5 66 -23 88 -21 17 -36 21 -58 17 -137 -28
-160 -225 -27 -232 23 -1 44 -4 47 -6 4 -4 -52 -29 -91 -40 -19 -5 -113 109
-125 152 -34 127 110 262 219 205z m2653 -115 c46 -18 109 -38 141 -44 l59
-12 -52 -62 c-51 -61 -65 -68 -65 -34 0 12 -10 18 -37 20 -35 3 -98 -20 -98
-36 0 -4 11 -24 25 -44 19 -28 29 -35 46 -31 18 5 20 3 11 -13 -16 -29 -124
-141 -119 -124 2 8 0 23 -5 33 -7 14 -23 17 -92 17 -46 0 -105 -3 -131 -7 -54
-7 -61 4 56 -88 41 -32 71 -48 87 -47 23 2 23 1 -9 -40 -33 -40 -33 -41 -41
-17 -10 26 -146 140 -203 169 l-36 18 57 67 c52 61 59 66 70 50 10 -14 21 -16
55 -10 l43 7 -23 19 c-13 11 -32 19 -42 19 -26 0 -24 9 11 50 26 31 29 32 30
14 0 -28 202 -196 217 -180 14 14 -80 188 -129 237 -32 32 -33 27 27 102 28
35 30 36 47 17 9 -10 54 -33 100 -50z m-2361 -214 c9 -16 9 -18 -4 -13 -26 10
-227 -150 -227 -180 0 -22 -13 -13 -60 42 -39 45 -41 50 -23 53 30 4 209 157
217 184 5 22 8 21 46 -22 22 -25 45 -54 51 -64z m1777 -98 c-24 -35 -70 -91
-103 -125 l-61 -63 -59 0 c-78 0 -115 -11 -163 -49 -21 -18 -85 -52 -143 -77
l-104 -45 -17 22 c-43 52 -3 85 142 114 125 25 172 47 311 145 120 85 211 140
231 140 5 0 -10 -28 -34 -62z m-1673 -23 c26 -33 65 -79 87 -101 l40 -41 -33
-39 c-18 -22 -35 -41 -36 -43 -2 -2 -6 -1 -9 2 -4 4 -1 20 5 36 13 30 2 71
-18 71 -20 0 -192 -153 -187 -166 3 -7 2 -16 -3 -18 -7 -5 -111 106 -111 119
0 4 10 5 22 2 17 -5 43 11 115 69 51 41 93 79 93 84 0 18 -42 32 -76 25 -19
-3 -34 -2 -34 3 0 7 92 64 96 59 1 -1 23 -29 49 -62z m1305 -64 c24 -2 24 -3
-14 -37 -48 -42 -118 -64 -202 -64 -54 0 -65 3 -78 22 -20 28 -20 65 -1 75 13
8 218 10 295 4z m566 -40 c100 -45 125 -174 51 -258 -50 -57 -126 -78 -191
-53 l-25 9 19 -32 c44 -72 20 -138 -94 -262 -43 -47 -55 -56 -56 -40 -1 25
-182 178 -213 180 -12 1 -22 4 -22 8 0 3 29 38 64 78 92 103 163 129 248 94
l37 -16 -21 23 c-46 49 -56 124 -24 186 24 47 50 70 98 88 52 18 81 17 129 -5z
m-1626 -183 c0 -5 -9 -8 -19 -8 -12 0 -24 -13 -34 -37 -15 -37 -14 -38 7 -41
35 -5 77 15 70 33 -11 28 12 15 44 -24 18 -22 32 -43 32 -46 0 -4 -14 -4 -30
0 -17 4 -62 1 -99 -5 -81 -14 -149 -58 -158 -102 -3 -16 -8 -28 -12 -27 -7 0
-101 115 -101 123 0 4 10 4 23 1 36 -9 111 63 136 131 12 30 21 67 21 83 0 15
3 31 8 35 7 7 111 -101 112 -116z m193 -279 c152 -42 181 -247 43 -310 -106
-48 -217 3 -247 114 -21 78 26 164 106 192 49 17 51 17 98 4z m910 -56 l52
-28 -35 -3 c-72 -6 -118 -39 -104 -76 17 -44 69 -21 58 26 l-6 29 39 -20 c21
-10 47 -26 58 -35 19 -15 19 -15 -11 -16 -18 0 -42 -8 -54 -18 l-22 -18 47
-42 c48 -42 61 -48 81 -34 31 21 45 102 24 142 -6 10 -6 21 -1 24 5 3 25 -20
46 -50 l37 -56 -44 -47 c-25 -25 -62 -67 -83 -93 -38 -49 -55 -59 -55 -34 0
16 -195 174 -221 178 -14 2 -4 20 52 83 38 44 72 88 75 98 7 22 5 22 67 -10z
m-594 -275 c34 -43 68 -81 77 -86 12 -6 9 -15 -17 -50 -17 -23 -34 -42 -37
-42 -4 0 -6 20 -4 45 3 30 -1 54 -12 70 -19 28 -34 31 -61 11 -19 -14 -19 -14
0 -36 11 -12 27 -19 37 -17 25 7 23 0 -18 -49 -39 -49 -60 -58 -42 -19 9 20 8
31 -2 50 -7 14 -18 25 -23 25 -20 0 -117 -93 -117 -114 -1 -17 -10 -11 -50 34
-28 30 -50 57 -50 60 0 3 14 10 30 15 45 15 187 135 200 169 6 17 14 26 18 20
5 -5 37 -44 71 -86z m414 17 c23 -16 12 -23 -36 -23 -42 0 -77 -24 -77 -54 0
-31 23 -30 91 2 82 38 130 40 158 4 28 -35 27 -98 0 -144 -18 -29 -105 -120
-116 -120 -5 0 -103 71 -103 75 0 2 24 1 53 -2 63 -6 90 5 112 47 33 63 -7 77
-89 31 -74 -43 -114 -44 -151 -6 -18 17 -25 35 -25 62 0 43 17 73 75 130 43
44 40 44 108 -2z m-156 -412 c3 -7 -22 -55 -55 -108 l-60 -96 -58 92 c-31 50
-57 97 -57 104 0 7 26 54 57 104 l58 92 55 -88 c31 -49 58 -93 60 -100z"/>
<path d="M2840 2274 c0 -10 34 -64 40 -64 10 1 44 30 39 34 -9 8 -79 35 -79
30z"/>
<path d="M2397 1822 c-24 -27 -21 -47 15 -87 54 -62 145 -94 176 -63 34 34
-13 110 -92 147 -52 26 -78 26 -99 3z"/>
<path d="M2173 1544 c-18 -9 -33 -20 -33 -25 0 -11 105 -98 155 -129 l38 -23
18 22 c37 45 14 106 -54 146 -50 29 -79 31 -124 9z"/>
<path d="M1102 1363 c-102 -50 -140 -183 -52 -183 39 0 109 55 130 102 19 43
17 65 -8 86 -20 16 -30 15 -70 -5z"/>
</g>
</svg>
